# xmcd CD Database Entry
#
# Track frame offsets:
# 150
# 15377
# 25301
# 43173
# 55780
# 71663
# 86882
# 104664
# 121942
# 139369
# 153867
# 168454
# 186385
# 194741
# 212237
# 230724
# 244211
# 258470
# 283779
#
# Disc length: 3973 seconds
#
# Revision: 1
# Processed by: cddbd v1.4PL0 Copyright (c) Steve Scherf et al.
# Submitted via: tcd 2.0b
#
DISCID=280f8313
DTITLE=The Clash - London Calling
DYEAR=1900
DGENRE=
TTITLE0=London Calling
TTITLE1=Brand new Cadillac
TTITLE2=Jimmy jazz
TTITLE3=Hateful
TTITLE4=Rudy can't fail
TTITLE5=Spanish bombs
TTITLE6=The right profile
TTITLE7=Lost in the supermarket
TTITLE8=Clampdown
TTITLE9=The guns of Brixton
TTITLE10=Wrong'em Boyo
TTITLE11=Death or glory
TTITLE12=Koka kola
TTITLE13=The card cheat
TTITLE14=Lover's rock
TTITLE15=Four horsemen
TTITLE16=I'm not down
TTITLE17=Revolution rock
TTITLE18=Train in vain
EXTD=
EXTT0=
EXTT1=
EXTT2=
EXTT3=
EXTT4=
EXTT5=
EXTT6=
EXTT7=
EXTT8=
EXTT9=
EXTT10=
EXTT11=
EXTT12=
EXTT13=
EXTT14=
EXTT15=
EXTT16=
EXTT17=
EXTT18=
PLAYORDER=
